<svg id="visual" viewBox="0 0 960 300" width="960" height="300" xmlns="http://www.w3.org/2000/svg" xmlns:xlink="http://www.w3.org/1999/xlink" version="1.1"><rect x="0" y="0" width="960" height="300" fill="#001220"></rect><path d="M0 152L16 147C32 142 64 132 96 130.5C128 129 160 136 192 140.3C224 144.7 256 146.3 288 144.2C320 142 352 136 384 133C416 130 448 130 480 133.3C512 136.7 544 143.3 576 147.7C608 152 640 154 672 157.3C704 160.7 736 165.3 768 159.2C800 153 832 136 864 137C896 138 928 157 944 166.5L960 176L960 301L944 301C928 301 896 301 864 301C832 301 800 301 768 301C736 301 704 301 672 301C640 301 608 301 576 301C544 301 512 301 480 301C448 301 416 301 384 301C352 301 320 301 288 301C256 301 224 301 192 301C160 301 128 301 96 301C64 301 32 301 16 301L0 301Z" fill="#6972fa"></path><path d="M0 151L16 159.2C32 167.3 64 183.7 96 188.8C128 194 160 188 192 182.8C224 177.7 256 173.3 288 170.2C320 167 352 165 384 162C416 159 448 155 480 158.2C512 161.3 544 171.7 576 172.3C608 173 640 164 672 159.3C704 154.7 736 154.3 768 158.5C800 162.7 832 171.3 864 170.7C896 170 928 160 944 155L960 150L960 301L944 301C928 301 896 301 864 301C832 301 800 301 768 301C736 301 704 301 672 301C640 301 608 301 576 301C544 301 512 301 480 301C448 301 416 301 384 301C352 301 320 301 288 301C256 301 224 301 192 301C160 301 128 301 96 301C64 301 32 301 16 301L0 301Z" fill="#3d61ce"></path><path d="M0 182L16 184.3C32 186.7 64 191.3 96 197.7C128 204 160 212 192 214.3C224 216.7 256 213.3 288 213.3C320 213.3 352 216.7 384 216.3C416 216 448 212 480 209.8C512 207.7 544 207.3 576 203C608 198.7 640 190.3 672 190.5C704 190.7 736 199.3 768 203.2C800 207 832 206 864 204.2C896 202.3 928 199.7 944 198.3L960 197L960 301L944 301C928 301 896 301 864 301C832 301 800 301 768 301C736 301 704 301 672 301C640 301 608 301 576 301C544 301 512 301 480 301C448 301 416 301 384 301C352 301 320 301 288 301C256 301 224 301 192 301C160 301 128 301 96 301C64 301 32 301 16 301L0 301Z" fill="#154ea0"></path><path d="M0 210L16 212.3C32 214.7 64 219.3 96 221.5C128 223.7 160 223.3 192 222.7C224 222 256 221 288 221.7C320 222.3 352 224.7 384 228C416 231.3 448 235.7 480 235.5C512 235.3 544 230.7 576 230.5C608 230.3 640 234.7 672 233C704 231.3 736 223.7 768 222.5C800 221.3 832 226.7 864 229.2C896 231.7 928 231.3 944 231.2L960 231L960 301L944 301C928 301 896 301 864 301C832 301 800 301 768 301C736 301 704 301 672 301C640 301 608 301 576 301C544 301 512 301 480 301C448 301 416 301 384 301C352 301 320 301 288 301C256 301 224 301 192 301C160 301 128 301 96 301C64 301 32 301 16 301L0 301Z" fill="#003a74"></path><path d="M0 228L16 230.3C32 232.7 64 237.3 96 241.8C128 246.3 160 250.7 192 252.2C224 253.7 256 252.3 288 253.3C320 254.3 352 257.7 384 258.7C416 259.7 448 258.3 480 253.3C512 248.3 544 239.7 576 237.2C608 234.7 640 238.3 672 243.3C704 248.3 736 254.7 768 253.5C800 252.3 832 243.7 864 238.8C896 234 928 233 944 232.5L960 232L960 301L944 301C928 301 896 301 864 301C832 301 800 301 768 301C736 301 704 301 672 301C640 301 608 301 576 301C544 301 512 301 480 301C448 301 416 301 384 301C352 301 320 301 288 301C256 301 224 301 192 301C160 301 128 301 96 301C64 301 32 301 16 301L0 301Z" fill="#002649"></path><path d="M0 280L16 278.5C32 277 64 274 96 274.2C128 274.3 160 277.7 192 278C224 278.3 256 275.7 288 272.8C320 270 352 267 384 266.2C416 265.3 448 266.7 480 269.7C512 272.7 544 277.3 576 279.8C608 282.3 640 282.7 672 282.3C704 282 736 281 768 279.5C800 278 832 276 864 276C896 276 928 278 944 279L960 280L960 301L944 301C928 301 896 301 864 301C832 301 800 301 768 301C736 301 704 301 672 301C640 301 608 301 576 301C544 301 512 301 480 301C448 301 416 301 384 301C352 301 320 301 288 301C256 301 224 301 192 301C160 301 128 301 96 301C64 301 32 301 16 301L0 301Z" fill="#001122"></path></svg>